<mxfile host="app.diagrams.net" modified="2023-08-22T00:24:36.852Z" agent="Mozilla/5.0 (X11; Linux x86_64) AppleWebKit/537.36 (KHTML, like Gecko) Chrome/105.0.0.0 Safari/537.36" etag="u-k7ID4HoiSjDqb8tO3R" version="21.6.6" type="google">
  <diagram name="PÃ¡gina-1" id="O5jEwTTqp0m5zEfJtiyH">
    <mxGraphModel grid="1" page="1" gridSize="10" guides="1" tooltips="1" connect="1" arrows="1" fold="1" pageScale="1" pageWidth="827" pageHeight="1169" math="0" shadow="0">
      <root>
        <mxCell id="0" />
        <mxCell id="1" parent="0" />
        <mxCell id="aysV4q4jQEnwlcxdx8OH-11" value="" style="rounded=0;whiteSpace=wrap;html=1;" vertex="1" parent="1">
          <mxGeometry x="130" y="420" width="560" height="220" as="geometry" />
        </mxCell>
        <mxCell id="ISzpSESv7d_Isz_uPrda-7" value="&amp;nbsp;HTTP&amp;nbsp;" style="edgeStyle=orthogonalEdgeStyle;rounded=0;orthogonalLoop=1;jettySize=auto;html=1;entryX=0;entryY=0.5;entryDx=0;entryDy=0;startArrow=classic;startFill=1;" edge="1" parent="1" source="aysV4q4jQEnwlcxdx8OH-2" target="aysV4q4jQEnwlcxdx8OH-38">
          <mxGeometry relative="1" as="geometry" />
        </mxCell>
        <mxCell id="aysV4q4jQEnwlcxdx8OH-2" value="Actor" style="shape=umlActor;verticalLabelPosition=bottom;verticalAlign=top;html=1;outlineConnect=0;" vertex="1" parent="1">
          <mxGeometry x="40" y="500" width="30" height="60" as="geometry" />
        </mxCell>
        <mxCell id="aysV4q4jQEnwlcxdx8OH-20" value="" style="shape=image;verticalLabelPosition=bottom;labelBackgroundColor=default;verticalAlign=top;aspect=fixed;imageAspect=0;image=data:image/png,iVBORw0KGgoAAAANSUhEUgAAAOEAAADhCAMAAAAJbSJIAAAAdVBMVEX///8GbaUAYp/U4uwAZaH3+/0AaKJ1o8TP4OutxNgAZqGWtM4AcqgAY6CwyNwAa6Ti6vGXudIAX57r8vdAhbPy9/oAWpufvtW90uKFrcpMi7amw9jn8PVXkbq0zN4vfK5mmb4yf69il715p8cAVpogdqrG2OZNO2NfAAAFM0lEQVR4nO3c62KiOAAFYElDqrEhGLH1Uq21q+//iAudzo4msRslNzrn+5mpyBkkdxiNAAAAAAAAAAAAAAAAAAAAAAAAAAAAAO5UbSaXNuPUp+SZFPSSmqY+Jc+eCg1FwqFBwuFDwuFDwuFDwuFDwuFDwuFjilx6/mkJa8M89SnB32FsaAvn1lKz8DX12bvQaw/yXI5Gk2e9VLWlzPjTQdQ0UupNQJulolqhlOVgWwskREI31UvIDN+LknAuSJOsdxAl4ZoVTOyC5rguRsKl6g6hVmGTXBMj4dcHxTZslCsiJNz8PhpfBw5jFSHhnw/w98BpbMIn3ImziAmuYviEzfk30H3gPKbgCWty8Rm1CR5JEzzhjF8eSdTBM10i2so17UZP1bNeStpSqRc6rXK/a/+F8i14pkv67oPJps1S64WTSTdqNDz8//EXSr/ypAqfKqal0BMWRepz8mvKjYA0VGVTmqyl9r+94QDl+bcemJFQHgMllDo6s5WKrqYRRnFXlxoH6Goas3R2/q2NXld3d6LD/esvIdMKi8+EVC9ltoTcIeHRDFjwQKMMo+XjM1vpre2hUcovEloCFrL5QQlLW8JCtP+yeK3r+nW+GHpC6zUs2PZNckoIEYIXzWrnaYYjTULbfdgd78/XtlnV28pHXy5NQltdaknMVXMaaEJLe3glJFn3vY5pEk71Q32TUc3sZ553Qlu/9Krnfr/UNAnNscV1kvYKmCihMT78Bu+5DpIo4YvzjShpz+Y/UcK5c8Le3dVECd3bC1baTvsGlLNLZGYr7dazK6UV8i53YRzgM6G19Iw22XYVWfYMOHo0LK2lbZaTtfTDKOyWk8xS/UzdujV83zdgIouZcR/Yf6Kxp+D8qDdr4VbRyKf76tHxQyLj03Ky2kpFHRtDVty3NWf8j74DJhpB2yrMLV2Lvt3ZEk7ce70pSfV4X77RaGXOVWaIPt3f3350/52kIinrM2Ry7k0kwih577eIsc0yIftctxJEPe2rvpsbt+4Dl3jYYVm1Tg99e6HZXkOvU/o53ofS616FfYYJSf9JwzMZthaeV9YybPE97997yS6h78XRXXb9UuF5l8LJcf4gGu/r26+5Jew/FaMpWV6dGul/a+Ixr4TK/7tQ8urUsL33gPquubQk8blm/+V0y9JWaCLEMxe3LG2FFqCa6dywtBWaCrOv9CObG1EEekYqmxsx1DaoUek66RyYJMEeN81kIiPgvuA8hhchV87KHG7EYFtmP2XQcQv8AMIy/QhK+R4zaYydBLGR0E/Iuu9nCUPcvXTmqkx7I9JD6ICJ5xR5qL7MuTLhACNKwJQXMdYzo2WqviltfKyguajStIk04iOxbvuuPBMRatH/1Al6p+QjYsDRaBb9d6piv+tjHbfdl9TrQqiL0m2HoCf8mOANUg8kXsT7d3H1UsXq2jAaeLR01SxKREnWASbvHU0jRGTBHmN2sgoeUa0Tv0ox8A+VF6nelPTHJmBEluo1SZfGLFDTz8g+k3d9zpsQfVSmDrFfWfKNmfLc9kuuHjPK16obn/1wSdkqv7d8VtLXmhRTPfcxB7OivH9GJuRHoFdceLCYsl7XUTKqtqk6oK6qd3LnLJykRB52saaZ+qhXktz6a5VUqPfpeAjxfnlYNUI4pmScqqKZnoaT7sti2aYklF7b5ycl45wSUWxXy7zavZvUu+m+OVL1+djZb4IQJYrj+vDxsqzTDfu8WnSPDla/XmtWLU/jn5ILAAAAAAAAAAAAAAAAAAAAAAAAAAAAMvEv7od8ZXfpSw8AAAAASUVORK5CYII=;" vertex="1" parent="1">
          <mxGeometry x="659" y="421" width="30" height="30" as="geometry" />
        </mxCell>
        <mxCell id="ISzpSESv7d_Isz_uPrda-4" value="" style="group" connectable="0" vertex="1" parent="1">
          <mxGeometry x="530" y="475" width="110" height="110" as="geometry" />
        </mxCell>
        <mxCell id="aysV4q4jQEnwlcxdx8OH-17" value="" style="group;strokeColor=default;container=0;dashed=1;dashPattern=8 8;" connectable="0" vertex="1" parent="ISzpSESv7d_Isz_uPrda-4">
          <mxGeometry width="110" height="110" as="geometry" />
        </mxCell>
        <mxCell id="aysV4q4jQEnwlcxdx8OH-6" value="MySql" style="shape=cylinder3;whiteSpace=wrap;html=1;boundedLbl=1;backgroundOutline=1;size=15;" vertex="1" parent="ISzpSESv7d_Isz_uPrda-4">
          <mxGeometry x="25" y="30" width="60" height="65" as="geometry" />
        </mxCell>
        <mxCell id="aysV4q4jQEnwlcxdx8OH-12" value="" style="shape=image;verticalLabelPosition=bottom;labelBackgroundColor=default;verticalAlign=top;aspect=fixed;imageAspect=0;image=data:image/png,iVBORw0KGgoAAAANSUhEUgAAAOEAAADhCAMAAAAJbSJIAAAAdVBMVEX///8GbaUAYp/U4uwAZaH3+/0AaKJ1o8TP4OutxNgAZqGWtM4AcqgAY6CwyNwAa6Ti6vGXudIAX57r8vdAhbPy9/oAWpufvtW90uKFrcpMi7amw9jn8PVXkbq0zN4vfK5mmb4yf69il715p8cAVpogdqrG2OZNO2NfAAAFM0lEQVR4nO3c62KiOAAFYElDqrEhGLH1Uq21q+//iAudzo4msRslNzrn+5mpyBkkdxiNAAAAAAAAAAAAAAAAAAAAAAAAAAAAAO5UbSaXNuPUp+SZFPSSmqY+Jc+eCg1FwqFBwuFDwuFDwuFDwuFDwuFDwuFjilx6/mkJa8M89SnB32FsaAvn1lKz8DX12bvQaw/yXI5Gk2e9VLWlzPjTQdQ0UupNQJulolqhlOVgWwskREI31UvIDN+LknAuSJOsdxAl4ZoVTOyC5rguRsKl6g6hVmGTXBMj4dcHxTZslCsiJNz8PhpfBw5jFSHhnw/w98BpbMIn3ImziAmuYviEzfk30H3gPKbgCWty8Rm1CR5JEzzhjF8eSdTBM10i2so17UZP1bNeStpSqRc6rXK/a/+F8i14pkv67oPJps1S64WTSTdqNDz8//EXSr/ypAqfKqal0BMWRepz8mvKjYA0VGVTmqyl9r+94QDl+bcemJFQHgMllDo6s5WKrqYRRnFXlxoH6Goas3R2/q2NXld3d6LD/esvIdMKi8+EVC9ltoTcIeHRDFjwQKMMo+XjM1vpre2hUcovEloCFrL5QQlLW8JCtP+yeK3r+nW+GHpC6zUs2PZNckoIEYIXzWrnaYYjTULbfdgd78/XtlnV28pHXy5NQltdaknMVXMaaEJLe3glJFn3vY5pEk71Q32TUc3sZ553Qlu/9Krnfr/UNAnNscV1kvYKmCihMT78Bu+5DpIo4YvzjShpz+Y/UcK5c8Le3dVECd3bC1baTvsGlLNLZGYr7dazK6UV8i53YRzgM6G19Iw22XYVWfYMOHo0LK2lbZaTtfTDKOyWk8xS/UzdujV83zdgIouZcR/Yf6Kxp+D8qDdr4VbRyKf76tHxQyLj03Ky2kpFHRtDVty3NWf8j74DJhpB2yrMLV2Lvt3ZEk7ce70pSfV4X77RaGXOVWaIPt3f3350/52kIinrM2Ry7k0kwih577eIsc0yIftctxJEPe2rvpsbt+4Dl3jYYVm1Tg99e6HZXkOvU/o53ofS616FfYYJSf9JwzMZthaeV9YybPE97997yS6h78XRXXb9UuF5l8LJcf4gGu/r26+5Jew/FaMpWV6dGul/a+Ixr4TK/7tQ8urUsL33gPquubQk8blm/+V0y9JWaCLEMxe3LG2FFqCa6dywtBWaCrOv9CObG1EEekYqmxsx1DaoUek66RyYJMEeN81kIiPgvuA8hhchV87KHG7EYFtmP2XQcQv8AMIy/QhK+R4zaYydBLGR0E/Iuu9nCUPcvXTmqkx7I9JD6ICJ5xR5qL7MuTLhACNKwJQXMdYzo2WqviltfKyguajStIk04iOxbvuuPBMRatH/1Al6p+QjYsDRaBb9d6piv+tjHbfdl9TrQqiL0m2HoCf8mOANUg8kXsT7d3H1UsXq2jAaeLR01SxKREnWASbvHU0jRGTBHmN2sgoeUa0Tv0ox8A+VF6nelPTHJmBEluo1SZfGLFDTz8g+k3d9zpsQfVSmDrFfWfKNmfLc9kuuHjPK16obn/1wSdkqv7d8VtLXmhRTPfcxB7OivH9GJuRHoFdceLCYsl7XUTKqtqk6oK6qd3LnLJykRB52saaZ+qhXktz6a5VUqPfpeAjxfnlYNUI4pmScqqKZnoaT7sti2aYklF7b5ycl45wSUWxXy7zavZvUu+m+OVL1+djZb4IQJYrj+vDxsqzTDfu8WnSPDla/XmtWLU/jn5ILAAAAAAAAAAAAAAAAAAAAAAAAAAAAMvEv7od8ZXfpSw8AAAAASUVORK5CYII=;" vertex="1" parent="ISzpSESv7d_Isz_uPrda-4">
          <mxGeometry x="89" y="1" width="20" height="20" as="geometry" />
        </mxCell>
        <mxCell id="ISzpSESv7d_Isz_uPrda-17" value="&lt;font size=&quot;1&quot; style=&quot;&quot;&gt;&lt;b style=&quot;font-size: 8px;&quot;&gt;Docker Container&lt;/b&gt;&lt;/font&gt;" style="text;html=1;strokeColor=none;fillColor=none;align=center;verticalAlign=middle;whiteSpace=wrap;rounded=0;" vertex="1" parent="ISzpSESv7d_Isz_uPrda-4">
          <mxGeometry x="16.5" y="6.5" width="72.5" height="9" as="geometry" />
        </mxCell>
        <mxCell id="ISzpSESv7d_Isz_uPrda-5" value="" style="group" connectable="0" vertex="1" parent="1">
          <mxGeometry x="355" y="475" width="110" height="110" as="geometry" />
        </mxCell>
        <mxCell id="ISzpSESv7d_Isz_uPrda-21" style="edgeStyle=orthogonalEdgeStyle;rounded=0;orthogonalLoop=1;jettySize=auto;html=1;startArrow=classic;startFill=1;" edge="1" parent="ISzpSESv7d_Isz_uPrda-5" source="aysV4q4jQEnwlcxdx8OH-22">
          <mxGeometry relative="1" as="geometry">
            <mxPoint x="175" y="55" as="targetPoint" />
          </mxGeometry>
        </mxCell>
        <mxCell id="aysV4q4jQEnwlcxdx8OH-22" value="" style="whiteSpace=wrap;html=1;aspect=fixed;dashed=1;dashPattern=8 8;" vertex="1" parent="ISzpSESv7d_Isz_uPrda-5">
          <mxGeometry width="110" height="110" as="geometry" />
        </mxCell>
        <mxCell id="aysV4q4jQEnwlcxdx8OH-23" value="" style="shape=image;verticalLabelPosition=bottom;labelBackgroundColor=default;verticalAlign=top;aspect=fixed;imageAspect=0;image=data:image/png,iVBORw0KGgoAAAANSUhEUgAAAOEAAADhCAMAAAAJbSJIAAAAdVBMVEX///8GbaUAYp/U4uwAZaH3+/0AaKJ1o8TP4OutxNgAZqGWtM4AcqgAY6CwyNwAa6Ti6vGXudIAX57r8vdAhbPy9/oAWpufvtW90uKFrcpMi7amw9jn8PVXkbq0zN4vfK5mmb4yf69il715p8cAVpogdqrG2OZNO2NfAAAFM0lEQVR4nO3c62KiOAAFYElDqrEhGLH1Uq21q+//iAudzo4msRslNzrn+5mpyBkkdxiNAAAAAAAAAAAAAAAAAAAAAAAAAAAAAO5UbSaXNuPUp+SZFPSSmqY+Jc+eCg1FwqFBwuFDwuFDwuFDwuFDwuFDwuFjilx6/mkJa8M89SnB32FsaAvn1lKz8DX12bvQaw/yXI5Gk2e9VLWlzPjTQdQ0UupNQJulolqhlOVgWwskREI31UvIDN+LknAuSJOsdxAl4ZoVTOyC5rguRsKl6g6hVmGTXBMj4dcHxTZslCsiJNz8PhpfBw5jFSHhnw/w98BpbMIn3ImziAmuYviEzfk30H3gPKbgCWty8Rm1CR5JEzzhjF8eSdTBM10i2so17UZP1bNeStpSqRc6rXK/a/+F8i14pkv67oPJps1S64WTSTdqNDz8//EXSr/ypAqfKqal0BMWRepz8mvKjYA0VGVTmqyl9r+94QDl+bcemJFQHgMllDo6s5WKrqYRRnFXlxoH6Goas3R2/q2NXld3d6LD/esvIdMKi8+EVC9ltoTcIeHRDFjwQKMMo+XjM1vpre2hUcovEloCFrL5QQlLW8JCtP+yeK3r+nW+GHpC6zUs2PZNckoIEYIXzWrnaYYjTULbfdgd78/XtlnV28pHXy5NQltdaknMVXMaaEJLe3glJFn3vY5pEk71Q32TUc3sZ553Qlu/9Krnfr/UNAnNscV1kvYKmCihMT78Bu+5DpIo4YvzjShpz+Y/UcK5c8Le3dVECd3bC1baTvsGlLNLZGYr7dazK6UV8i53YRzgM6G19Iw22XYVWfYMOHo0LK2lbZaTtfTDKOyWk8xS/UzdujV83zdgIouZcR/Yf6Kxp+D8qDdr4VbRyKf76tHxQyLj03Ky2kpFHRtDVty3NWf8j74DJhpB2yrMLV2Lvt3ZEk7ce70pSfV4X77RaGXOVWaIPt3f3350/52kIinrM2Ry7k0kwih577eIsc0yIftctxJEPe2rvpsbt+4Dl3jYYVm1Tg99e6HZXkOvU/o53ofS616FfYYJSf9JwzMZthaeV9YybPE97997yS6h78XRXXb9UuF5l8LJcf4gGu/r26+5Jew/FaMpWV6dGul/a+Ixr4TK/7tQ8urUsL33gPquubQk8blm/+V0y9JWaCLEMxe3LG2FFqCa6dywtBWaCrOv9CObG1EEekYqmxsx1DaoUek66RyYJMEeN81kIiPgvuA8hhchV87KHG7EYFtmP2XQcQv8AMIy/QhK+R4zaYydBLGR0E/Iuu9nCUPcvXTmqkx7I9JD6ICJ5xR5qL7MuTLhACNKwJQXMdYzo2WqviltfKyguajStIk04iOxbvuuPBMRatH/1Al6p+QjYsDRaBb9d6piv+tjHbfdl9TrQqiL0m2HoCf8mOANUg8kXsT7d3H1UsXq2jAaeLR01SxKREnWASbvHU0jRGTBHmN2sgoeUa0Tv0ox8A+VF6nelPTHJmBEluo1SZfGLFDTz8g+k3d9zpsQfVSmDrFfWfKNmfLc9kuuHjPK16obn/1wSdkqv7d8VtLXmhRTPfcxB7OivH9GJuRHoFdceLCYsl7XUTKqtqk6oK6qd3LnLJykRB52saaZ+qhXktz6a5VUqPfpeAjxfnlYNUI4pmScqqKZnoaT7sti2aYklF7b5ycl45wSUWxXy7zavZvUu+m+OVL1+djZb4IQJYrj+vDxsqzTDfu8WnSPDla/XmtWLU/jn5ILAAAAAAAAAAAAAAAAAAAAAAAAAAAAMvEv7od8ZXfpSw8AAAAASUVORK5CYII=;" vertex="1" parent="ISzpSESv7d_Isz_uPrda-5">
          <mxGeometry x="89" y="1" width="20" height="20" as="geometry" />
        </mxCell>
        <mxCell id="ISzpSESv7d_Isz_uPrda-1" value="User-Service&lt;br style=&quot;border-color: var(--border-color);&quot;&gt;(Node/Express)" style="text;html=1;strokeColor=none;fillColor=none;align=center;verticalAlign=middle;whiteSpace=wrap;rounded=0;" vertex="1" parent="ISzpSESv7d_Isz_uPrda-5">
          <mxGeometry x="15" y="40" width="80" height="30" as="geometry" />
        </mxCell>
        <mxCell id="ISzpSESv7d_Isz_uPrda-16" value="&lt;font size=&quot;1&quot; style=&quot;&quot;&gt;&lt;b style=&quot;font-size: 8px;&quot;&gt;Docker Container&lt;/b&gt;&lt;/font&gt;" style="text;html=1;strokeColor=none;fillColor=none;align=center;verticalAlign=middle;whiteSpace=wrap;rounded=0;" vertex="1" parent="ISzpSESv7d_Isz_uPrda-5">
          <mxGeometry x="16.5" y="6.5" width="72.5" height="9" as="geometry" />
        </mxCell>
        <mxCell id="ISzpSESv7d_Isz_uPrda-6" value="" style="group" connectable="0" vertex="1" parent="1">
          <mxGeometry x="180" y="475" width="110" height="110" as="geometry" />
        </mxCell>
        <mxCell id="aysV4q4jQEnwlcxdx8OH-38" value="" style="whiteSpace=wrap;html=1;aspect=fixed;dashed=1;dashPattern=8 8;" vertex="1" parent="ISzpSESv7d_Isz_uPrda-6">
          <mxGeometry width="110" height="110" as="geometry" />
        </mxCell>
        <mxCell id="aysV4q4jQEnwlcxdx8OH-39" value="" style="shape=image;verticalLabelPosition=bottom;labelBackgroundColor=default;verticalAlign=top;aspect=fixed;imageAspect=0;image=data:image/png,iVBORw0KGgoAAAANSUhEUgAAAOEAAADhCAMAAAAJbSJIAAAAdVBMVEX///8GbaUAYp/U4uwAZaH3+/0AaKJ1o8TP4OutxNgAZqGWtM4AcqgAY6CwyNwAa6Ti6vGXudIAX57r8vdAhbPy9/oAWpufvtW90uKFrcpMi7amw9jn8PVXkbq0zN4vfK5mmb4yf69il715p8cAVpogdqrG2OZNO2NfAAAFM0lEQVR4nO3c62KiOAAFYElDqrEhGLH1Uq21q+//iAudzo4msRslNzrn+5mpyBkkdxiNAAAAAAAAAAAAAAAAAAAAAAAAAAAAAO5UbSaXNuPUp+SZFPSSmqY+Jc+eCg1FwqFBwuFDwuFDwuFDwuFDwuFDwuFjilx6/mkJa8M89SnB32FsaAvn1lKz8DX12bvQaw/yXI5Gk2e9VLWlzPjTQdQ0UupNQJulolqhlOVgWwskREI31UvIDN+LknAuSJOsdxAl4ZoVTOyC5rguRsKl6g6hVmGTXBMj4dcHxTZslCsiJNz8PhpfBw5jFSHhnw/w98BpbMIn3ImziAmuYviEzfk30H3gPKbgCWty8Rm1CR5JEzzhjF8eSdTBM10i2so17UZP1bNeStpSqRc6rXK/a/+F8i14pkv67oPJps1S64WTSTdqNDz8//EXSr/ypAqfKqal0BMWRepz8mvKjYA0VGVTmqyl9r+94QDl+bcemJFQHgMllDo6s5WKrqYRRnFXlxoH6Goas3R2/q2NXld3d6LD/esvIdMKi8+EVC9ltoTcIeHRDFjwQKMMo+XjM1vpre2hUcovEloCFrL5QQlLW8JCtP+yeK3r+nW+GHpC6zUs2PZNckoIEYIXzWrnaYYjTULbfdgd78/XtlnV28pHXy5NQltdaknMVXMaaEJLe3glJFn3vY5pEk71Q32TUc3sZ553Qlu/9Krnfr/UNAnNscV1kvYKmCihMT78Bu+5DpIo4YvzjShpz+Y/UcK5c8Le3dVECd3bC1baTvsGlLNLZGYr7dazK6UV8i53YRzgM6G19Iw22XYVWfYMOHo0LK2lbZaTtfTDKOyWk8xS/UzdujV83zdgIouZcR/Yf6Kxp+D8qDdr4VbRyKf76tHxQyLj03Ky2kpFHRtDVty3NWf8j74DJhpB2yrMLV2Lvt3ZEk7ce70pSfV4X77RaGXOVWaIPt3f3350/52kIinrM2Ry7k0kwih577eIsc0yIftctxJEPe2rvpsbt+4Dl3jYYVm1Tg99e6HZXkOvU/o53ofS616FfYYJSf9JwzMZthaeV9YybPE97997yS6h78XRXXb9UuF5l8LJcf4gGu/r26+5Jew/FaMpWV6dGul/a+Ixr4TK/7tQ8urUsL33gPquubQk8blm/+V0y9JWaCLEMxe3LG2FFqCa6dywtBWaCrOv9CObG1EEekYqmxsx1DaoUek66RyYJMEeN81kIiPgvuA8hhchV87KHG7EYFtmP2XQcQv8AMIy/QhK+R4zaYydBLGR0E/Iuu9nCUPcvXTmqkx7I9JD6ICJ5xR5qL7MuTLhACNKwJQXMdYzo2WqviltfKyguajStIk04iOxbvuuPBMRatH/1Al6p+QjYsDRaBb9d6piv+tjHbfdl9TrQqiL0m2HoCf8mOANUg8kXsT7d3H1UsXq2jAaeLR01SxKREnWASbvHU0jRGTBHmN2sgoeUa0Tv0ox8A+VF6nelPTHJmBEluo1SZfGLFDTz8g+k3d9zpsQfVSmDrFfWfKNmfLc9kuuHjPK16obn/1wSdkqv7d8VtLXmhRTPfcxB7OivH9GJuRHoFdceLCYsl7XUTKqtqk6oK6qd3LnLJykRB52saaZ+qhXktz6a5VUqPfpeAjxfnlYNUI4pmScqqKZnoaT7sti2aYklF7b5ycl45wSUWxXy7zavZvUu+m+OVL1+djZb4IQJYrj+vDxsqzTDfu8WnSPDla/XmtWLU/jn5ILAAAAAAAAAAAAAAAAAAAAAAAAAAAAMvEv7od8ZXfpSw8AAAAASUVORK5CYII=;" vertex="1" parent="ISzpSESv7d_Isz_uPrda-6">
          <mxGeometry x="89" y="1" width="20" height="20" as="geometry" />
        </mxCell>
        <mxCell id="ISzpSESv7d_Isz_uPrda-2" value="API Gateway&lt;br style=&quot;border-color: var(--border-color);&quot;&gt;(NGINX)" style="text;html=1;strokeColor=none;fillColor=none;align=center;verticalAlign=middle;whiteSpace=wrap;rounded=0;" vertex="1" parent="ISzpSESv7d_Isz_uPrda-6">
          <mxGeometry x="15" y="40" width="80" height="30" as="geometry" />
        </mxCell>
        <mxCell id="ISzpSESv7d_Isz_uPrda-10" value="&lt;font size=&quot;1&quot; style=&quot;&quot;&gt;&lt;b style=&quot;font-size: 8px;&quot;&gt;Docker Container&lt;/b&gt;&lt;/font&gt;" style="text;html=1;strokeColor=none;fillColor=none;align=center;verticalAlign=middle;whiteSpace=wrap;rounded=0;" vertex="1" parent="ISzpSESv7d_Isz_uPrda-6">
          <mxGeometry x="16.5" y="6.5" width="72.5" height="9" as="geometry" />
        </mxCell>
        <mxCell id="ISzpSESv7d_Isz_uPrda-8" value="Docker Host" style="text;html=1;strokeColor=none;fillColor=none;align=center;verticalAlign=middle;whiteSpace=wrap;rounded=0;" vertex="1" parent="1">
          <mxGeometry x="375" y="421" width="70" height="30" as="geometry" />
        </mxCell>
        <mxCell id="ISzpSESv7d_Isz_uPrda-18" style="edgeStyle=orthogonalEdgeStyle;rounded=0;orthogonalLoop=1;jettySize=auto;html=1;entryX=0;entryY=0.5;entryDx=0;entryDy=0;startArrow=classic;startFill=1;" edge="1" parent="1" source="aysV4q4jQEnwlcxdx8OH-38" target="aysV4q4jQEnwlcxdx8OH-22">
          <mxGeometry relative="1" as="geometry" />
        </mxCell>
      </root>
    </mxGraphModel>
  </diagram>
</mxfile>
